<svg xmlns="http://www.w3.org/2000/svg" width="37" height="44" viewBox="0 0 37 44"><defs><style>.a{fill:#f89448;}.b{fill:#fff;}.c{fill:none;}</style></defs><g transform="translate(-6430 -5836)"><g transform="translate(6246 5367)"><path class="a" d="M10,0,20,15H0Z" transform="translate(213 513) rotate(180)"/><rect class="a" width="37" height="38" rx="18.5" transform="translate(184 469)"/></g><g transform="translate(6435 5841)"><path class="b" d="M25.845,8.577a2.858,2.858,0,0,0-2.759-.754l-1.3.333A7.192,7.192,0,0,0,18.5,10.035l-.414.414a4.17,4.17,0,0,0-.66,5.023l-2.148,2.149L13.346,15.69a4.681,4.681,0,0,0-.672-5.777L10.808,8.047A1.08,1.08,0,0,0,9.281,9.574l1.865,1.866a2.492,2.492,0,0,1,.586,2.637L8.256,10.6a1.08,1.08,0,0,0-1.528,1.527L10.205,15.6a2.528,2.528,0,0,1-2.637-.585L5.7,13.153A1.08,1.08,0,0,0,4.176,14.68l1.865,1.866a4.687,4.687,0,0,0,5.777.671l1.93,1.93L8.357,24.537a1.08,1.08,0,1,0,1.527,1.527l5.391-5.391,5.391,5.391a1.08,1.08,0,0,0,1.527-1.527L16.8,19.147,18.95,17a4.16,4.16,0,0,0,5.023-.66l.414-.413a7.191,7.191,0,0,0,1.878-3.293l.334-1.3A2.862,2.862,0,0,0,25.845,8.577ZM24.507,10.8l-.334,1.3a5.027,5.027,0,0,1-1.314,2.3l-.413.414a2.005,2.005,0,0,1-2.837-2.836l.414-.413a5.032,5.032,0,0,1,2.3-1.315l1.3-.333a.757.757,0,0,1,.188-.025.723.723,0,0,1,.505.214A.713.713,0,0,1,24.507,10.8Z" transform="translate(-1.776 -3.555)"/><rect class="c" width="27" height="27"/></g></g></svg>